PathFileType	4	(X/Y/Z)	/home/abdul/Desktop/myosuite/custom_workspace/IK/output/S11_12_1.trc
DataRate	CameraRate	NumFrames	NumMarkers	Units	OrigDataRate	OrigDataStartFrame	OrigNumFrames
200.0	200.0	22	3	mm	200.0	1	1546
Frame#	Time	V_Shoulder			V_Elbow			V_Wrist		
		X1	Y1	Z1	X2	Y2	Z2	X3	Y3	Z3

1	0.0	-116.27782701234702	592.5733487415995	266.0014546705368	-300.10311580648846	418.61541858346976	30.198108025712944	-201.2529934277681	223.5261181663696	52.92626758115324
2	0.005	-116.29042406022063	592.5528919901043	265.97584114837736	-300.10557695999944	418.6110732967561	30.191816456270804	-201.25036497171988	223.5230953952091	52.913925151573494
3	0.01	-116.30310679155838	592.5321925013113	265.95029042738025	-300.108026391033	418.6069627354866	30.18485849892969	-201.24707372276967	223.52091608373559	52.8998627081178
4	0.015	-116.31584553377543	592.5112766874416	265.9248812349667	-300.1104560553189	418.6031076127632	30.177240720480345	-201.24309349406235	223.5196266860878	52.88404337456596
5	0.02	-116.32860921502845	592.4901716439227	265.89969537176313	-300.112857595499	418.59952834096265	30.16897322560026	-201.23839929049865	223.51927206356663	52.86643547785476
6	0.025	-116.34136538890483	592.4689050725108	265.8748176089139	-300.11522235090945	418.59624492895216	30.160069810645286	-201.23296745916664	223.519895206196	52.847012957464955
7	0.03	-116.35408026227121	592.4475052015329	265.85033557583307	-300.1175413682658	418.59327687593566	30.15054811079081	-201.22677584153683	223.5215369468749	52.82575577501015
8	0.035	-116.36671872622003	592.4260007034848	265.8263396385848	-300.11980541321304	418.590643062165	30.140429739677845	-201.21980392685498	223.5242356688213	52.802650322510715
9	0.04	-116.37924439005111	592.404420610212	265.80292276909444	-300.1220049826976	418.5883616367694	30.129740420718722	-201.21203300612717	223.52802700706835	52.7776898277647
10	0.045	-116.39161961822204	592.3827942259054	265.7801804054172	-300.12413031810934	418.5864499029741	30.118510109220345	-201.20344632605335	223.5329435448288	52.7508747551592
11	0.05	-116.40380557019942	592.3611510381392	265.7582103033044	-300.12617141913665	418.58492420099947	30.106773104489395	-201.1940292422285	223.5390145056023	52.72221320020128
12	0.055	-116.41576224314083	592.3395206271761	265.73711237932673	-300.1281180582682	418.5837997889484	30.09456815109507	-201.18376937089351	223.546265441954	52.6917212759862
13	0.06	-116.42744851733686	592.3179325737591	265.7169885458283	-300.12995979586884	418.58309072200666	30.081938528479373	-201.17265673848058	223.55471792194842	52.65942348976499
14	0.065	-116.43882220433936	592.2964163656071	265.6979425380032	-300.1316859957486	418.5828097303005	30.068932128123464	-201.16068392816547	223.5643892142752	52.62535310772204
15	0.07	-116.4498400977027	592.275001302823	265.6800797334007	-300.1332858411367	418.5829680957685	30.055601517501636	-201.14784622260368	223.5752919731542	52.58955250602818
16	0.075	-116.46045802626156	592.2537164024199	265.6635069641827	-300.1347483509642	418.5835755284237	30.04200399008095	-201.13414174199735	223.5874339241562	52.55207350619539
17	0.08	-116.47063090986819	592.2325903021621	265.6483323224705	-300.13606239635186	418.5846400423917	30.02820160065566	-201.11957157660947	223.60081755212119	52.512977692727326
18	0.085	-116.48031281750978	592.2116511639146	265.63466495913633	-300.1372167171929	418.58616783212983	30.014261185340466	-201.10413991281513	223.61543979239957	52.47233671103423
19	0.09	-116.48945702772471	592.1909265766809	265.6226148764105	-300.1381999387123	418.5881631492392	30.000254365585743	-201.0878541517548	223.63129172668033	52.43023254356427
20	0.095	-116.49801609123381	592.1704434595159	265.612292714691	-300.1390005878782	418.59062818029753	29.98625753562127	-201.07072501963177	223.64835828470677	52.386757762094085
21	0.1	-116.5059418957001	592.1502279644745	265.6038095339596	-300.13960710953455	418.59356292614586	29.97235183278218	-201.0527666686769	223.66661795321173	52.34201575412163
22	0.105	-116.51318573252756	592.1303053797691	265.59727659022457	-300.1400078821178	418.59696508307525	29.958623090222133	-201.033996767789	223.68604249343161	52.296120921313964
